<svg width="42" height="42" viewBox="0 0 42 42" fill="none" xmlns="http://www.w3.org/2000/svg">
<path d="M32.5925 37.2939C29.7443 34.1129 25.6059 32.1111 21 32.1111C16.3941 32.1111 12.2554 34.1129 9.40712 37.2939M21 41C9.95431 41 1 32.0457 1 21C1 9.95431 9.95431 1 21 1C32.0457 1 41 9.95431 41 21C41 32.0457 32.0457 41 21 41ZM21 25.4444C17.3181 25.4444 14.3333 22.4597 14.3333 18.7778C14.3333 15.0959 17.3181 12.1111 21 12.1111C24.6819 12.1111 27.6667 15.0959 27.6667 18.7778C27.6667 22.4597 24.6819 25.4444 21 25.4444Z" stroke="white" stroke-width="2" stroke-linecap="round" stroke-linejoin="round"/>
</svg>
