<svg width="22" height="22" viewBox="0 0 22 22" fill="none" xmlns="http://www.w3.org/2000/svg">
<path d="M11 14.75L14.75 11M14.75 11L11 7.25M14.75 11H1M7.25 5.06073V5.00024C7.25 3.60011 7.25 2.89953 7.52248 2.36475C7.76217 1.89434 8.14434 1.51217 8.61475 1.27248C9.14953 1 9.85011 1 11.2502 1H17.0002C18.4004 1 19.0995 1 19.6342 1.27248C20.1046 1.51217 20.4881 1.89434 20.7278 2.36475C21 2.899 21 3.59874 21 4.99614V17.0045C21 18.4019 21 19.1006 20.7278 19.6349C20.4881 20.1053 20.1046 20.4881 19.6342 20.7278C19.1 21 18.4013 21 17.0039 21H11.2461C9.84874 21 9.149 21 8.61475 20.7278C8.14434 20.4881 7.76217 20.1049 7.52248 19.6345C7.25 19.0997 7.25 18.4001 7.25 17V16.9375" stroke="white" stroke-width="2" stroke-linecap="round" stroke-linejoin="round"/>
</svg>
