<svg width="38" height="37" viewBox="0 0 38 37" fill="none" xmlns="http://www.w3.org/2000/svg">
<g clip-path="url(#clip0_2163_4275)">
<path d="M38 18.5C38 8.28282 29.4933 0 19 0C8.50668 0 0 8.28282 0 18.5C0 27.1758 6.13472 34.4559 14.4104 36.4554V24.1536H10.4926V18.5H14.4104V16.0639C14.4104 9.76726 17.3371 6.8487 23.6862 6.8487C24.89 6.8487 26.9671 7.07884 27.8168 7.30824V12.4327C27.3684 12.3869 26.5894 12.3639 25.6219 12.3639C22.5066 12.3639 21.3028 13.5131 21.3028 16.5005V18.5H27.509L26.4427 24.1536H21.3028V36.8646C30.7108 35.7583 38.0008 27.9587 38.0008 18.5H38Z" fill="#0866FF"/>
<path d="M26.4418 24.1536L27.5081 18.5H21.3019V16.5005C21.3019 13.5131 22.5058 12.3639 25.621 12.3639C26.5885 12.3639 27.3675 12.3869 27.8159 12.4327V7.30823C26.9662 7.07809 24.8891 6.84869 23.6853 6.84869C17.3363 6.84869 14.4095 9.76725 14.4095 16.0639V18.5H10.4917V24.1536H14.4095V36.4554C15.8793 36.8106 17.4168 37 18.9991 37C19.7781 37 20.5465 36.9534 21.3012 36.8646V24.1536H26.4411H26.4418Z" fill="white"/>
</g>
<defs>
<clipPath id="clip0_2163_4275">
<rect width="38" height="37" fill="white"/>
</clipPath>
</defs>
</svg>
