<svg width="38" height="37" viewBox="0 0 38 37" fill="none" xmlns="http://www.w3.org/2000/svg">
<path d="M19.0014 0C13.8412 0 13.1937 0.0219691 11.167 0.111771C9.14424 0.201959 7.76356 0.513761 6.55546 0.97125C5.30581 1.44377 4.24575 2.07585 3.18966 3.10453C2.13277 4.13282 1.4836 5.16497 0.996719 6.38134C0.525672 7.55802 0.205044 8.90274 0.114001 10.8714C0.0237503 12.8448 0 13.4757 0 18.5C0 23.5243 0.0229589 24.1529 0.114793 26.1262C0.207815 28.0957 0.528047 29.4401 0.997511 30.6163C1.4832 31.8331 2.13238 32.8653 3.18887 33.8935C4.24457 34.9226 5.30462 35.5562 6.55349 36.0288C7.76237 36.4862 9.14345 36.798 11.1658 36.8882C13.1925 36.978 13.8397 37 18.9994 37C24.1599 37 24.8056 36.978 26.8322 36.8882C28.855 36.798 30.2372 36.4862 31.4461 36.0288C32.6954 35.5562 33.7539 34.9226 34.8096 33.8935C35.8664 32.8653 36.5156 31.8331 37.0025 30.6167C37.4696 29.4401 37.7902 28.0953 37.8852 26.1266C37.9762 24.1533 38 23.5243 38 18.5C38 13.4757 37.9762 12.8452 37.8852 10.8718C37.7902 8.90235 37.4696 7.55802 37.0025 6.38173C36.5156 5.16497 35.8664 4.13282 34.8096 3.10453C33.7527 2.07547 32.6958 1.44339 31.4449 0.97125C30.2337 0.513761 28.8522 0.201959 26.8295 0.111771C24.8028 0.0219691 24.1576 0 18.9958 0H19.0014ZM17.2969 3.33385C17.8028 3.33308 18.3673 3.33385 19.0014 3.33385C24.0744 3.33385 24.6757 3.35158 26.6791 3.44023C28.5316 3.52271 29.537 3.8241 30.2068 4.07732C31.0934 4.41264 31.7256 4.81347 32.3902 5.46097C33.0552 6.10847 33.4669 6.72514 33.812 7.58847C34.0721 8.23982 34.382 9.21878 34.4664 11.0225C34.5574 12.9727 34.5772 13.5586 34.5772 18.4958C34.5772 23.4329 34.5574 24.0188 34.4664 25.969C34.3816 27.7727 34.0721 28.7517 33.812 29.4031C33.4677 30.2664 33.0552 30.8811 32.3902 31.5282C31.7252 32.1757 31.0938 32.5766 30.2068 32.9119C29.5378 33.1663 28.5316 33.4669 26.6791 33.5494C24.6761 33.638 24.0744 33.6573 19.0014 33.6573C13.9279 33.6573 13.3267 33.638 11.3237 33.5494C9.4712 33.4661 8.46578 33.1647 7.79562 32.9115C6.90895 32.5762 6.27561 32.1754 5.6106 31.5279C4.94559 30.8804 4.53392 30.2652 4.18875 29.4015C3.92869 28.7502 3.61875 27.7712 3.53443 25.9674C3.44339 24.0172 3.42518 23.4314 3.42518 18.4911C3.42518 13.5509 3.44339 12.9681 3.53443 11.0179C3.61914 9.21416 3.92869 8.2352 4.18875 7.58307C4.53313 6.71974 4.94559 6.10307 5.6106 5.45557C6.27561 4.80807 6.90895 4.40724 7.79562 4.07116C8.46538 3.81678 9.4712 3.51616 11.3237 3.43329C13.0765 3.35621 13.7557 3.33308 17.2969 3.32923V3.33385Z" fill="url(#paint0_radial_2163_4278)"/>
<path d="M29.1027 6.36018C28.6517 6.36018 28.2108 6.4904 27.8359 6.73437C27.4609 6.97834 27.1687 7.3251 26.9961 7.7308C26.8236 8.1365 26.7785 8.58291 26.8665 9.01356C26.9546 9.44422 27.1718 9.83979 27.4907 10.1502C27.8097 10.4607 28.216 10.672 28.6583 10.7576C29.1007 10.8432 29.5591 10.7991 29.9757 10.631C30.3924 10.4628 30.7484 10.1782 30.9988 9.81299C31.2493 9.44781 31.3829 9.01852 31.3827 8.57941C31.3827 7.35378 30.3614 6.35941 29.1027 6.35941V6.36018Z" fill="url(#paint1_radial_2163_4278)"/>
<path fill-rule="evenodd" clip-rule="evenodd" d="M18.9605 8.95403C13.572 8.95403 9.20313 13.2079 9.20313 18.4546C9.20313 23.7012 13.572 27.9531 18.9605 27.9531C24.3491 27.9531 28.7167 23.7012 28.7167 18.4546C28.7167 13.2079 24.3491 8.95403 18.9605 8.95403ZM19 24.5703C22.4432 24.5703 25.2344 21.8526 25.2344 18.5C25.2344 15.1475 22.4432 12.4297 19 12.4297C15.5569 12.4297 12.7656 15.1475 12.7656 18.5C12.7656 21.8526 15.5569 24.5703 19 24.5703Z" fill="url(#paint2_radial_2163_4278)"/>
<path d="M19.0014 0C13.8412 0 13.1937 0.0219691 11.167 0.111771C9.14424 0.201959 7.76356 0.513761 6.55546 0.97125C5.30581 1.44377 4.24575 2.07585 3.18966 3.10453C2.13277 4.13282 1.4836 5.16497 0.996719 6.38134C0.525672 7.55802 0.205044 8.90274 0.114001 10.8714C0.0237503 12.8448 0 13.4757 0 18.5C0 23.5243 0.0229589 24.1529 0.114793 26.1262C0.207815 28.0957 0.528047 29.4401 0.997511 30.6163C1.4832 31.8331 2.13238 32.8653 3.18887 33.8935C4.24457 34.9226 5.30462 35.5562 6.55349 36.0288C7.76237 36.4862 9.14345 36.798 11.1658 36.8882C13.1925 36.978 13.8397 37 18.9994 37C24.1599 37 24.8056 36.978 26.8322 36.8882C28.855 36.798 30.2372 36.4862 31.4461 36.0288C32.6954 35.5562 33.7539 34.9226 34.8096 33.8935C35.8664 32.8653 36.5156 31.8331 37.0025 30.6167C37.4696 29.4401 37.7902 28.0953 37.8852 26.1266C37.9762 24.1533 38 23.5243 38 18.5C38 13.4757 37.9762 12.8452 37.8852 10.8718C37.7902 8.90235 37.4696 7.55802 37.0025 6.38173C36.5156 5.16497 35.8664 4.13282 34.8096 3.10453C33.7527 2.07547 32.6958 1.44339 31.4449 0.97125C30.2337 0.513761 28.8522 0.201959 26.8295 0.111771C24.8028 0.0219691 24.1576 0 18.9958 0H19.0014ZM17.2969 3.33385C17.8028 3.33308 18.3673 3.33385 19.0014 3.33385C24.0744 3.33385 24.6757 3.35158 26.6791 3.44023C28.5316 3.52271 29.537 3.8241 30.2068 4.07732C31.0934 4.41264 31.7256 4.81347 32.3902 5.46097C33.0552 6.10847 33.4669 6.72514 33.812 7.58847C34.0721 8.23982 34.382 9.21878 34.4664 11.0225C34.5574 12.9727 34.5772 13.5586 34.5772 18.4958C34.5772 23.4329 34.5574 24.0188 34.4664 25.969C34.3816 27.7727 34.0721 28.7517 33.812 29.4031C33.4677 30.2664 33.0552 30.8811 32.3902 31.5282C31.7252 32.1757 31.0938 32.5766 30.2068 32.9119C29.5378 33.1663 28.5316 33.4669 26.6791 33.5494C24.6761 33.638 24.0744 33.6573 19.0014 33.6573C13.9279 33.6573 13.3267 33.638 11.3237 33.5494C9.4712 33.4661 8.46578 33.1647 7.79562 32.9115C6.90895 32.5762 6.27561 32.1754 5.6106 31.5279C4.94559 30.8804 4.53392 30.2652 4.18875 29.4015C3.92869 28.7502 3.61875 27.7712 3.53443 25.9674C3.44339 24.0172 3.42518 23.4314 3.42518 18.4911C3.42518 13.5509 3.44339 12.9681 3.53443 11.0179C3.61914 9.21416 3.92869 8.2352 4.18875 7.58307C4.53313 6.71974 4.94559 6.10307 5.6106 5.45557C6.27561 4.80807 6.90895 4.40724 7.79562 4.07116C8.46538 3.81678 9.4712 3.51616 11.3237 3.43329C13.0765 3.35621 13.7557 3.33308 17.2969 3.32923V3.33385Z" fill="url(#paint3_radial_2163_4278)"/>
<path d="M29.1027 6.36018C28.6517 6.36018 28.2108 6.4904 27.8359 6.73437C27.4609 6.97834 27.1687 7.3251 26.9961 7.7308C26.8236 8.1365 26.7785 8.58291 26.8665 9.01356C26.9546 9.44422 27.1718 9.83979 27.4907 10.1502C27.8097 10.4607 28.216 10.672 28.6583 10.7576C29.1007 10.8432 29.5591 10.7991 29.9757 10.631C30.3924 10.4628 30.7484 10.1782 30.9988 9.81299C31.2493 9.44781 31.3829 9.01852 31.3827 8.57941C31.3827 7.35378 30.3614 6.35941 29.1027 6.35941V6.36018Z" fill="url(#paint4_radial_2163_4278)"/>
<path fill-rule="evenodd" clip-rule="evenodd" d="M18.9605 8.95403C13.572 8.95403 9.20313 13.2079 9.20313 18.4546C9.20313 23.7012 13.572 27.9531 18.9605 27.9531C24.3491 27.9531 28.7167 23.7012 28.7167 18.4546C28.7167 13.2079 24.3491 8.95403 18.9605 8.95403ZM19 24.5703C22.4432 24.5703 25.2344 21.8526 25.2344 18.5C25.2344 15.1475 22.4432 12.4297 19 12.4297C15.5569 12.4297 12.7656 15.1475 12.7656 18.5C12.7656 21.8526 15.5569 24.5703 19 24.5703Z" fill="url(#paint5_radial_2163_4278)"/>
<defs>
<radialGradient id="paint0_radial_2163_4278" cx="0" cy="0" r="1" gradientUnits="userSpaceOnUse" gradientTransform="translate(10.0938 39.8498) rotate(-90) scale(36.6697 35.0275)">
<stop stop-color="#FFDD55"/>
<stop offset="0.1" stop-color="#FFDD55"/>
<stop offset="0.5" stop-color="#FF543E"/>
<stop offset="1" stop-color="#C837AB"/>
</radialGradient>
<radialGradient id="paint1_radial_2163_4278" cx="0" cy="0" r="1" gradientUnits="userSpaceOnUse" gradientTransform="translate(10.0938 39.8498) rotate(-90) scale(36.6697 35.0275)">
<stop stop-color="#FFDD55"/>
<stop offset="0.1" stop-color="#FFDD55"/>
<stop offset="0.5" stop-color="#FF543E"/>
<stop offset="1" stop-color="#C837AB"/>
</radialGradient>
<radialGradient id="paint2_radial_2163_4278" cx="0" cy="0" r="1" gradientUnits="userSpaceOnUse" gradientTransform="translate(10.0938 39.8498) rotate(-90) scale(36.6697 35.0275)">
<stop stop-color="#FFDD55"/>
<stop offset="0.1" stop-color="#FFDD55"/>
<stop offset="0.5" stop-color="#FF543E"/>
<stop offset="1" stop-color="#C837AB"/>
</radialGradient>
<radialGradient id="paint3_radial_2163_4278" cx="0" cy="0" r="1" gradientUnits="userSpaceOnUse" gradientTransform="translate(-6.3652 2.66542) rotate(78.3829) scale(16.4088 69.3196)">
<stop stop-color="#3771C8"/>
<stop offset="0.128" stop-color="#3771C8"/>
<stop offset="1" stop-color="#6600FF" stop-opacity="0"/>
</radialGradient>
<radialGradient id="paint4_radial_2163_4278" cx="0" cy="0" r="1" gradientUnits="userSpaceOnUse" gradientTransform="translate(-6.3652 2.66542) rotate(78.3829) scale(16.4088 69.3196)">
<stop stop-color="#3771C8"/>
<stop offset="0.128" stop-color="#3771C8"/>
<stop offset="1" stop-color="#6600FF" stop-opacity="0"/>
</radialGradient>
<radialGradient id="paint5_radial_2163_4278" cx="0" cy="0" r="1" gradientUnits="userSpaceOnUse" gradientTransform="translate(-6.3652 2.66542) rotate(78.3829) scale(16.4088 69.3196)">
<stop stop-color="#3771C8"/>
<stop offset="0.128" stop-color="#3771C8"/>
<stop offset="1" stop-color="#6600FF" stop-opacity="0"/>
</radialGradient>
</defs>
</svg>
