<svg width="38" height="37" viewBox="0 0 38 37" fill="none" xmlns="http://www.w3.org/2000/svg">
<path d="M27.1959 13.3562C29.6396 15.0631 32.6331 16.0674 35.8663 16.0674V9.9879C35.2545 9.98803 34.6441 9.92568 34.0455 9.80174V14.5872C30.8125 14.5872 27.8194 13.5829 25.3751 11.8761V24.2826C25.3751 30.489 20.2262 35.5199 13.8751 35.5199C11.5054 35.5199 9.30282 34.8199 7.47314 33.6192C9.56142 35.7057 12.4737 37 15.6956 37C22.0471 37 27.1962 31.9691 27.1962 25.7625V13.3562H27.1959ZM29.4421 7.22274C28.1933 5.88956 27.3733 4.16666 27.1959 2.26194V1.47998H25.4704C25.9047 3.90089 27.3862 5.96917 29.4421 7.22274ZM11.4902 28.8567C10.7925 27.9627 10.4154 26.8691 10.4171 25.7447C10.4171 22.9062 12.7722 20.6046 15.6777 20.6046C16.2192 20.6045 16.7574 20.6855 17.2734 20.8455V14.6301C16.6704 14.5493 16.0617 14.5151 15.4534 14.5276V19.3654C14.9369 19.2054 14.3984 19.1241 13.8568 19.1246C10.9513 19.1246 8.59638 21.4259 8.59638 24.2649C8.59638 26.2722 9.77352 28.0101 11.4902 28.8567Z" fill="#FF004F"/>
<path d="M25.3754 11.876C27.8196 13.5828 30.8128 14.5871 34.0458 14.5871V9.80162C32.2412 9.426 30.6436 8.5045 29.4424 7.22274C27.3864 5.96905 25.905 3.90076 25.4707 1.47998H20.9383V25.7622C20.928 28.593 18.577 30.8852 15.6777 30.8852C13.9692 30.8852 12.4514 30.0894 11.4901 28.8567C9.77355 28.0101 8.5964 26.2721 8.5964 24.265C8.5964 21.4263 10.9513 19.1248 13.8568 19.1248C14.4135 19.1248 14.9501 19.2095 15.4534 19.3655V14.5278C9.21387 14.6537 4.1958 19.6355 4.1958 25.7624C4.1958 28.8208 5.44542 31.5935 7.47356 33.6194C9.30323 34.8199 11.5058 35.52 13.8755 35.52C20.2267 35.52 25.3755 30.4889 25.3755 24.2826V11.876H25.3754Z" fill="black"/>
<path d="M34.0457 9.80161V8.50766C32.4184 8.51008 30.823 8.06475 29.4423 7.22261C30.6645 8.53014 32.2739 9.43171 34.0457 9.80161ZM25.4706 1.47997C25.4292 1.24861 25.3974 1.01573 25.3753 0.781955V0H19.1172V24.2825C19.1072 27.1129 16.7563 29.4051 13.8568 29.4051C13.0055 29.4051 12.2018 29.2076 11.49 28.8568C12.4513 30.0894 13.9691 30.8851 15.6776 30.8851C18.5766 30.8851 20.928 28.5932 20.9382 25.7624V1.47997H25.4706ZM15.4536 14.5278V13.1502C14.9306 13.0804 14.4034 13.0454 13.8756 13.0456C7.52387 13.0455 2.375 18.0766 2.375 24.2825C2.375 28.1732 4.39859 31.6021 7.4736 33.6191C5.44546 31.5934 4.19585 28.8206 4.19585 25.7622C4.19585 19.6355 9.21379 14.6537 15.4536 14.5278Z" fill="#00F2EA"/>
</svg>
