<svg width="38" height="37" viewBox="0 0 38 37" fill="none" xmlns="http://www.w3.org/2000/svg">
<g clip-path="url(#clip0_2163_4276)">
<path d="M37.2431 9.53588C37.0282 8.74873 36.6048 8.03032 36.0152 7.45256C35.4256 6.8748 34.6905 6.45795 33.8835 6.24372C30.9126 5.46588 19.0376 5.46588 19.0376 5.46588C19.0376 5.46588 7.1626 5.46588 4.19169 6.24372C3.38465 6.45795 2.64956 6.8748 2.05997 7.45256C1.47038 8.03032 1.04698 8.74873 0.832143 9.53588C0.0375978 12.4412 0.0375977 18.5 0.0375977 18.5C0.0375977 18.5 0.0375978 24.5587 0.832143 27.4641C1.04698 28.2512 1.47038 28.9696 2.05997 29.5474C2.64956 30.1251 3.38465 30.542 4.19169 30.7562C7.1626 31.5341 19.0376 31.5341 19.0376 31.5341C19.0376 31.5341 30.9126 31.5341 33.8835 30.7562C34.6905 30.542 35.4256 30.1251 36.0152 29.5474C36.6048 28.9696 37.0282 28.2512 37.2431 27.4641C38.0376 24.5587 38.0376 18.5 38.0376 18.5C38.0376 18.5 38.0376 12.4412 37.2431 9.53588Z" fill="#FF0302"/>
<path d="M15.1514 24.0017V12.9984L25.0832 18.5001L15.1514 24.0017Z" fill="#FEFEFE"/>
</g>
<defs>
<clipPath id="clip0_2163_4276">
<rect width="38" height="37" fill="white"/>
</clipPath>
</defs>
</svg>
